<svg id="Layer_1" enable-background="new 0 0 512.16 512.16" height="512" viewBox="0 0 512.16 512.16" width="512" xmlns="http://www.w3.org/2000/svg"><g><path d="m256.08 0c-104.907 0-190.256 85.349-190.256 190.256 0 52.699 30.449 121.24 90.501 203.719 43.927 60.332 87.157 105.169 88.976 107.049l10.778 11.136 10.778-11.136c1.819-1.879 45.049-46.717 88.976-107.049 60.052-82.479 90.501-151.021 90.501-203.719.002-104.907-85.346-190.256-190.254-190.256zm-.325 84.758c29.384 0 53.29 23.906 53.29 53.29s-23.906 53.29-53.29 53.29-53.29-23.906-53.29-53.29 23.905-53.29 53.29-53.29zm91.579 218.997h-183.159v-33.505c0-43.44 35.341-78.781 78.781-78.781h25.597c43.44 0 78.781 35.341 78.781 78.781z"/><path d="m255.755 161.337c12.842 0 23.29-10.448 23.29-23.29s-10.448-23.29-23.29-23.29-23.29 10.448-23.29 23.29c0 12.843 10.447 23.29 23.29 23.29z"/><path d="m268.553 221.468h-25.597c-26.898 0-48.781 21.883-48.781 48.781v3.505h123.159v-3.505c0-26.897-21.883-48.781-48.781-48.781z"/></g></svg>